# xmcd CD database file
#
# Track frame offsets:
#	150
#	24122
#	46792
#	68898
#	89556
#	117883
#	136823
#	156927
#	187738
#	209335
#
# Disc length: 3056 seconds
#
# Revision: 0
# Processed by: cddbd v1.5PL3 Copyright (c) Steve Scherf et al.
# Submitted via: CDex 1.50
#
DISCID=7b0bee0a
DTITLE=michal urbaniak - urbanator
DYEAR=1994
DGENRE=Jazz
TTITLE0=chameleon
TTITLE1=hopscotch
TTITLE2=cats
TTITLE3=hot jazz bisquits
TTITLE4=watermelon man
TTITLE5=first flight
TTITLE6=here i go again
TTITLE7=sack of wol
TTITLE8=for my mother
TTITLE9=square park sunday
EXTD=YEAR: 1994
EXTT0=
EXTT1=
EXTT2=
EXTT3=
EXTT4=
EXTT5=
EXTT6=
EXTT7=
EXTT8=
EXTT9=
PLAYORDER=
